<?xml version="1.0" encoding="UTF-8" standalone="no"?>
<!-- Created with Inkscape (http://www.inkscape.org/) -->

<svg
   width="210mm"
   height="297mm"
   viewBox="0 0 210 297"
   version="1.1"
   id="svg1"
   xml:space="preserve"
   inkscape:version="1.4.3 (0d15f75, 2025-12-25)"
   sodipodi:docname="data_boar_mascote_bw.svg"
   inkscape:export-filename="data_boar_mascote_bw.png"
   inkscape:export-xdpi="96"
   inkscape:export-ydpi="96"
   xmlns:inkscape="http://www.inkscape.org/namespaces/inkscape"
   xmlns:sodipodi="http://sodipodi.sourceforge.net/DTD/sodipodi-0.dtd"
   xmlns="http://www.w3.org/2000/svg"
   xmlns:svg="http://www.w3.org/2000/svg"><sodipodi:namedview
     id="namedview1"
     pagecolor="#ffffff"
     bordercolor="#000000"
     borderopacity="0.25"
     inkscape:showpageshadow="2"
     inkscape:pageopacity="0.0"
     inkscape:pagecheckerboard="0"
     inkscape:deskcolor="#d1d1d1"
     inkscape:document-units="mm"
     inkscape:zoom="1"
     inkscape:cx="342"
     inkscape:cy="514.5"
     inkscape:window-width="1920"
     inkscape:window-height="991"
     inkscape:window-x="-9"
     inkscape:window-y="-9"
     inkscape:window-maximized="1"
     inkscape:current-layer="layer1" /><defs
     id="defs1" /><g
     inkscape:label="Camada 1"
     inkscape:groupmode="layer"
     id="layer1"><rect
       style="display:none;fill:#ffffff;stroke-width:0.563671"
       id="rect77"
       width="182.5625"
       height="156.63332"
       x="12.7"
       y="68.262497" /><path
       style="fill:#2b211f;stroke:none"
       d="m 97.893713,174.86588 c 0.691665,4.68329 3.997837,8.46553 4.452997,13.22916 0.4355,4.55786 0.12551,9.5978 -1.05445,14.02292 -0.70963,2.66127 -2.198507,5.22504 -2.604797,7.9375 -3.007924,0.23739 -6.075364,0.65653 -8.995833,1.42275 -0.800629,0.21006 -2.861518,0.71927 -2.334701,1.96436 0.654943,1.54792 4.340199,1.87497 5.774284,2.09647 5.781551,0.89295 11.641277,1.23784 17.462497,1.63649 11.00358,0.75354 22.32738,0.51625 33.3375,0.0341 5.63788,-0.2469 11.32684,0.0443 16.93333,-0.69188 3.79045,-0.49769 7.60784,-0.55893 11.37709,-1.32965 1.02196,-0.20897 3.44699,-0.51405 3.7699,-1.74552 0.25501,-0.9725 -0.94963,-1.45635 -1.65345,-1.70448 -2.13947,-0.75425 -4.42476,-0.87861 -6.61437,-1.41805 2.55517,-4.84906 1.27634,-9.83777 2.4919,-14.81666 0.8225,-3.36895 3.774,-5.9634 4.38727,-9.525 5.73521,1.1122 10.99472,0.24401 14.40713,-5.02709 1.90261,-2.93893 3.12137,-9.8015 -2.50089,-8.46666 -0.23241,-2.92014 -1.94978,-4.70378 -4.76249,-2.73872 -2.30426,1.60985 -4.25294,4.54927 -5.02709,7.23663 h -0.26458 c 0,-13.52943 -3.5092,-27.43876 -11.90625,-38.36458 1.16141,0.32959 2.49164,0.96916 3.70396,0.98076 2.64536,0.0253 2.13866,-3.04762 1.58669,-4.68492 -1.4991,-4.44683 -4.67213,-8.1124 -7.93648,-11.37709 1.88116,-0.4491 4.86178,-0.62706 3.59351,-3.43958 -1.17628,-2.60855 -4.0176,-4.58531 -6.23935,-6.25078 -0.81829,-0.61342 -2.74476,-1.44316 -2.99901,-2.50804 -0.37297,-1.56216 1.96655,-4.98448 2.4631,-6.58701 1.50378,-4.853178 1.27699,-9.86999 2.14567,-14.816668 0.38507,-2.19276 2.37806,-5.765652 -0.05,-7.348114 -1.63919,-1.068313 -3.9259,-0.982773 -5.79307,-1.163462 -5.74177,-0.555635 -12.06084,0.602676 -17.19792,3.304643 -2.12425,1.117309 -4.14761,3.558842 -6.35,4.290694 -1.09994,0.365513 -2.58437,-0.241103 -3.70416,-0.362785 -2.39359,-0.26011 -4.73631,-0.308476 -7.14375,-0.308476 0.80155,-1.178303 2.13122,-2.508439 2.31673,-3.96875 0.26509,-2.086646 -1.98234,-2.675547 -3.63965,-2.590507 -3.75108,0.192495 -7.73268,1.002717 -11.1125,2.688499 -1.13278,0.565001 -3.46632,2.696686 -4.73861,2.405537 -1.03825,-0.237582 -1.94564,-1.981645 -2.55744,-2.768112 -2.815184,-3.618933 -5.960171,-9.515795 -10.960197,-5.236147 -4.980025,4.262547 -6.879166,11.341265 -6.879166,17.671563 0,2.149546 0.940463,5.114095 0.518145,7.143745 -0.259125,1.24537 -1.651207,2.40808 -2.363494,3.43959 -1.507999,2.18384 -2.943538,4.57121 -3.669866,7.14375 -0.943394,3.34133 -1.996463,7.63755 -2.147285,11.1125 -0.06537,1.50612 1.018389,3.98031 0.483837,5.29166 -0.682,1.67306 -6.471577,5.47436 -8.235358,3.79869 -2.047227,-1.94496 1.543559,-7.69498 -3.635978,-7.1854 -0.547738,0.0539 -1.091107,0.21904 -1.587298,0.45506 -0.678617,0.32278 -1.235026,0.78004 -1.715294,1.35559 -3.006317,3.60272 -1.838316,7.31391 -2.710558,11.36565 -1.257037,5.83919 -4.683281,10.72195 -2.066032,16.93333 1.199555,2.84684 3.993369,4.7758 7.020849,5.21224 1.432487,0.20652 3.218933,-0.30376 4.497916,0.50366 3.577026,2.25816 6.082728,6.00241 9.789583,8.28986 6.438576,3.97319 13.462614,3.46147 20.637499,3.45674 m 2.645837,-85.460415 c -3.022574,1.346462 -5.506685,2.905265 -6.87917,6.085417 H 93.395796 C 92.727435,92.567013 92.489101,90.011436 92.86663,87.024215 h -0.264583 c -1.271515,2.723348 -2.513526,5.121038 -2.645834,8.202083 H 89.69163 l -0.264583,-0.529166 -2.910417,4.497916 c 0,-5.18812 0.421857,-9.913687 2.993099,-14.552083 0.721128,-1.300889 2.365666,-3.974902 4.140235,-3.825234 0.987827,0.08331 1.617698,1.250214 2.12055,1.973151 1.520813,2.186462 3.55378,4.259495 4.769036,6.614583 m 57.94374,-4.233333 c -3.07008,10.920586 -0.4921,27.371828 -14.81666,31.054238 -2.03915,0.52421 -4.57371,0.76987 -6.61459,0.16659 1.81735,2.24891 4.17644,4.03467 5.97293,6.35 3.30104,4.25441 5.02881,9.71464 5.13957,15.08125 l -7.40833,-6.08541 c 0.89781,2.46625 2.45521,4.62226 3.30301,7.14375 1.37062,4.07644 1.45949,8.18838 1.45949,12.43541 h -0.26458 c -1.46241,-3.38853 -4.32631,-6.17225 -7.14375,-8.46666 0.90114,4.85382 0.0773,10.64918 -2.64584,14.81666 h -0.26458 l -2.11667,-5.55625 h -0.52916 c -1.39654,4.4117 -7.20547,9.83206 -11.64167,11.1125 0.53716,-2.25629 0.27217,-4.46471 -0.52916,-6.61458 -4.46976,7.27685 -14.17785,10.33509 -22.489587,9.76591 -3.649365,-0.24992 -7.008309,-1.30241 -10.583333,-1.82841 v -0.26459 l 7.672916,-3.96875 c 4.156877,4.67924 11.725544,3.39654 14.936104,-1.5875 2.42191,-3.75975 2.34147,-8.55805 1.0873,-12.69999 -0.7447,-2.45941 -3.674,-7.90929 -7.02349,-6.67889 -1.72567,0.63391 -1.84849,2.74671 -1.85596,4.29764 -0.0134,2.78174 -0.13975,7.52024 -3.439787,8.46666 l -0.529167,-2.38125 c -3.968249,4.34728 -8.342158,5.95242 -13.758332,7.67292 -0.591857,-7.4371 -6.437987,-14.94662 -12.170833,-19.31458 v -0.26459 c 4.991184,0.6341 7.277624,2.91678 10.847916,6.08542 -1.498229,-3.80111 -4.390341,-6.11038 -8.202083,-7.40833 3.886189,-4.70519 9.457901,-7.0946 11.365851,-13.49375 1.305928,-4.38 -1.091301,-8.08208 -5.809601,-6.35 0.224356,-2.55356 1.458083,-4.53393 4.233333,-4.18434 0.825168,0.10395 2.293077,1.15676 3.025768,0.58062 2.438231,-1.91726 -1.130713,-4.81715 -3.025768,-4.86295 2.609337,-4.176 6.820643,-7.61465 11.112499,-9.971693 1.486376,-0.81631 3.598981,-2.104684 5.291664,-1.405389 2.05688,-7.13989 10.48396,-11.342072 17.4625,-11.641666 l -4.7625,8.466666 c 4.72006,-2.487235 10.52501,-2.281078 15.61042,-1.322916 -1.13776,3.594112 -4.87695,2.978032 -7.9375,4.233333 v 0.264583 c 1.42821,0.0039 4.59001,-0.02773 5.5489,1.24432 0.76722,1.0178 0.76174,4.041262 1.06568,5.370262 1.56753,-3.536346 2.20652,-7.182086 4.67493,-10.318748 5.61382,-7.133641 17.11828,-10.171294 25.75215,-7.9375 m -3.70416,3.96875 c -2.50994,-0.721161 -5.89814,0.493219 -8.20209,1.516461 -7.12395,3.163905 -14.98099,12.632417 -11.51407,20.972907 1.04979,2.52553 4.28911,3.19075 6.75157,2.74772 4.91301,-0.88391 8.26161,-5.04769 10.23709,-9.36209 1.44322,-3.15195 2.04262,-6.60956 2.18791,-10.054165 0.0871,-2.065378 -0.76831,-4.009348 0.53959,-5.820833 M 35.716633,116.39296 c -2.997613,0.71002 -5.774219,1.79695 -8.73125,0.1715 -7.824667,-4.30115 -3.486075,-16.00612 3.704167,-18.222977 4.077181,-1.257046 9.517821,-0.432225 11.535099,3.763977 1.226112,2.55046 0.609847,8.91789 -3.06333,9.37107 -1.392898,0.17186 -1.380439,-1.55523 -1.282084,-2.4919 0.272642,-2.59643 1.333793,-5.06211 1.541564,-7.67292 l -3.175,0.52917 h -0.264583 c -5.617014,-5.009706 -11.193106,5.44707 -9.496214,10.31875 1.203524,3.45525 5.866688,3.39574 7.908714,0.79375 3.157527,3.08121 7.617356,2.15715 9.930248,-1.5875 2.274619,-3.68269 2.509036,-9.1933 -0.243969,-12.699999 -4.942673,-6.29582 -15.760758,-4.863785 -20.774078,0.530184 -3.371548,3.627545 -4.394685,9.040635 -3.226443,13.757315 1.115981,4.50568 5.009239,7.33087 9.551742,7.64924 3.037085,0.21286 8.745413,-0.1682 6.085417,-4.20966 m -2.646035,-12.58403 c 1.620581,-0.27238 2.196898,1.17213 2.069911,2.52987 -0.182631,1.95269 -1.185667,4.82386 -3.392424,5.21389 -1.657053,0.29288 -2.446415,-1.08837 -2.331435,-2.56806 0.160565,-2.06633 1.36878,-4.7916 3.653948,-5.1757 m 73.554362,10.46737 c 2.26858,-0.19808 4.2733,-1.20518 6.61459,-1.03445 2.99988,0.21873 5.07832,1.92369 7.67291,3.15111 2.23097,-9.37531 -13.86522,-11.33622 -14.2875,-2.11666 m 54.50417,5.82083 c -3.42597,-0.0121 -5.9114,-3.20694 -8.99584,-4.49792 1.99127,-3.3023 7.59542,2.51011 8.99584,4.49792 m -50.53542,-2.0003 c -12.586535,2.02247 -9.5435,22.02963 3.175,19.90581 11.88892,-1.98529 8.95701,-21.85524 -3.175,-19.90581 m -25.929163,5.1753 -4.7625,-2.38125 c 1.952586,-4.14049 5.422214,-1.185 4.7625,2.38125 m 24.606253,12.7 c 2.19326,-1.47569 4.22445,-2.51708 4.98482,-5.29167 1.48716,-5.42668 -3.89224,-8.30391 -8.42441,-6.61458 1.80748,-4.23359 7.87218,-4.35353 11.10863,-1.74878 3.35053,2.69659 3.59693,7.59904 1.29903,11.00818 -0.83756,1.24261 -2.04266,2.09721 -3.41182,2.6787 -1.58287,0.67224 -4.04286,0.87472 -5.55625,-0.0319 m 57.14999,-0.52917 -10.58333,-1.5875 c 1.87002,1.95239 3.93492,3.43238 5.35597,5.82084 8.957,15.05463 9.0823,42.09361 -8.26639,51.32916 0,-5.05605 0.41207,-10.50935 -2.64583,-14.81667 l -5.66936,18.25625 -5.97231,11.90625 c -3.03284,-1.99781 -5.28475,-3.17459 -8.99583,-3.175 0.70702,-8.65522 3.51878,-15.76241 0,-24.34166 h -0.26458 c 0,6.53409 -0.0674,12.96636 -1.85209,19.31458 -12.29312,-1.58758 -23.65932,-11.97834 -26.45833,-24.07708 4.94557,-1.8658 9.9862,-2.56919 15.08125,-0.63002 2.23457,0.85048 4.5706,3.25857 6.87917,3.59066 1.62461,0.23369 3.73023,-0.80756 5.29166,-1.20655 1.59135,-0.40663 3.56833,-0.0941 5.02709,-0.81642 4.63999,-2.29762 8.09128,-7.35505 10.84791,-11.52101 h 0.52917 l 1.05833,1.85209 c 1.83544,-0.87653 2.7239,-3.20252 3.42244,-5.02709 1.87028,-4.88519 2.13381,-9.65561 2.13381,-14.81666 l 1.85209,0.79375 c 1.104,-5.69271 0.37502,-11.63742 -1.17062,-17.19792 -0.73513,-2.64465 -2.0699,-5.24312 -2.53355,-7.9375 7.25403,0.93678 14.59,7.41691 16.93333,14.2875 M 81.239457,123.48833 c 1.932376,-0.45372 1.933054,2.36234 0.256824,2.75996 -1.551795,0.3681 -1.669496,-2.42826 -0.256824,-2.75996 m -63.475292,2.09687 c -1.431078,0.64739 -0.832948,3.81225 -0.832948,5.09526 0,1.41852 -0.539239,4.25654 0.271935,5.47215 0.856913,1.28416 4.383296,0.63764 5.53828,0.0921 1.916639,-0.90537 1.862584,-2.94975 1.862701,-4.77046 2.39e-4,-3.73489 -2.196086,-7.9898 -6.839968,-5.88901 m 7.898302,10.9161 c 2.245639,0.3907 2.335096,-1.93656 4.222921,-1.79737 1.156191,0.0852 1.282241,1.31516 2.183426,1.77838 0.538642,0.27687 1.239608,0.12034 1.612204,-0.36054 0.546244,-0.705 0.0626,-1.79366 -0.172103,-2.53089 -0.568304,-1.78515 -1.323482,-7.5018 -3.376094,-7.98669 -1.608643,-0.38002 -2.114426,0.8822 -2.451885,2.16586 -0.744011,2.83015 -1.993782,5.78871 -2.018469,8.73125 m 13.229166,-8.46667 2.645833,-0.26458 c -0.03405,-2.8815 -2.21121,-2.38214 -4.497917,-2.38125 -0.985832,3.8e-4 -2.778314,-0.24027 -3.03148,1.082 -0.308751,1.6126 2.048813,1.02798 2.418202,2.3731 0.541125,1.97049 -0.943228,5.87349 0.356043,7.49754 0.765538,0.95688 1.926142,-0.018 2.070125,-0.90358 0.382131,-2.35045 0.03919,-5.02114 0.03919,-7.40323 m 5.556249,6.61458 c 0.711326,5.5e-4 1.6439,-0.13442 2.271615,0.27193 0.884015,0.57227 1.110955,2.00398 2.461284,1.71448 1.439124,-0.30852 0.663017,-2.14163 0.405652,-3.04474 -0.650114,-2.28127 -1.12787,-5.32044 -2.375735,-7.3479 -0.844893,-1.37272 -2.677041,-0.82725 -3.226038,0.48036 -0.245633,0.58506 -0.385183,1.23103 -0.557952,1.84046 -0.299489,1.05639 -0.58392,2.11529 -0.870926,3.175 -0.304172,1.1231 -1.389975,3.24902 -0.854793,4.38317 0.902893,1.91341 2.582716,-0.44277 2.746893,-1.47276 m 65.357188,-8.61528 c 2.3701,-0.63137 3.76307,3.11368 1.31271,3.73396 -2.37914,0.60224 -3.78582,-3.07515 -1.31271,-3.73396 m -90.22802,8.3507 v -6.61458 c 3.737272,0.0904 3.785464,6.56983 0,6.61458 m 10.31875,-4.49792 0.529166,2.64584 H 29.10205 l 0.79375,-2.64584 m 15.874999,0 0.529167,2.38125 h -1.322917 l 0.79375,-2.38125 m 18.520832,0.26459 c 0,3.50616 0.450167,5.53735 -2.910416,7.40833 0.0016,-2.49416 0.437522,-6.14404 2.910416,-7.40833 m 16.668749,25.66458 h -0.264583 l -0.264583,-0.79375 h -0.529167 c -0.291616,0.92607 -0.505193,2.05501 -1.060578,2.86142 -2.998113,4.35325 -8.386543,-0.53798 -11.639421,-1.22656 -1.637311,-0.34657 -4.530368,0.88575 -6.35,1.01097 l 0.529167,0.79375 c -5.277908,-3.07836 -2.810019,-12.02793 -0.148215,-16.13958 1.059335,-1.63635 2.62241,-3.30805 4.646131,-3.61331 4.87916,-0.73599 9.37769,5.73036 11.640851,9.16956 1.515581,2.30315 3.196558,5.14468 3.440398,7.9375 m -58.472913,-8.46667 2.116666,0.52917 c 3.036584,-5.25323 7.992148,-5.71789 12.7,-2.64583 1.79423,-3.09332 -1.32194,-4.61975 -4.233333,-4.75209 -4.420782,-0.20095 -9.703974,1.99599 -10.583333,6.86875 m 82.549993,-5.55625 c 4.46735,3.43447 5.79521,13.61019 0.78314,17.29081 -1.76402,1.29541 -7.604894,1.79931 -8.257213,-1.1551 -0.34297,-1.55333 2.835223,-3.27041 3.759293,-4.23048 2.00426,-2.08231 3.12835,-4.81005 3.40529,-7.67189 0.1335,-1.37952 -0.23164,-2.94378 0.30949,-4.23334 m -67.204161,7.9375 c 3.292483,-1.38459 6.149318,-3.76857 8.202083,0.79375 2.358819,-0.81148 1.981105,-2.96007 0.25315,-4.35705 -1.901862,-1.53757 -5.23433,-1.73434 -6.991449,0.18313 -0.853832,0.93174 -1.129146,2.20143 -1.463784,3.38017 M 62.46017,146.798 c -2.157789,0.77334 -2.446628,4.78736 -1.99622,6.63663 0.269331,1.10579 1.173362,2.41594 2.490271,1.95191 2.16492,-0.76284 1.78295,-5.0045 1.363951,-6.71441 -0.219988,-0.89777 -0.641199,-2.31021 -1.858002,-1.87413 m 6.858544,0.0221 c -1.280986,2.66183 0.67529,11.53621 5.015448,9.8935 1.530591,-0.57931 1.474547,-2.52047 1.042201,-3.80809 -0.879719,-2.61994 -3.423394,-5.24428 -6.057649,-6.08541 m -44.449997,9.26041 -1.322917,-6.08541 c -3.132536,-0.38595 -3.412691,4.58001 -1.218595,6.16646 0.715985,0.51769 1.766656,0.0782 2.541512,-0.0811 m 21.166665,11.37708 c -0.653053,1.19673 -1.288939,2.28904 -1.185933,3.70417 0.124976,1.71692 1.384032,3.87326 1.077122,5.54175 -0.259997,1.41348 -2.161358,1.19892 -1.915581,2.92492 0.380387,2.67128 3.994177,1.2048 5.006873,-0.27621 1.968178,-2.87836 -1.535089,-5.87707 -0.645527,-8.71861 0.564024,-1.80168 3.29526,-1.90258 2.517207,-4.21885 -0.562966,-1.67593 -3.033931,-1.05172 -3.943428,-2.67296 -1.773067,-3.16063 -1.059415,-8.85818 -6.461879,-6.99104 -0.869246,0.30041 -1.485141,1.00063 -1.126514,1.96028 0.486977,1.30311 1.983575,0.75974 2.750357,1.68691 1.784629,2.15791 0.707999,5.93886 3.927303,7.05964 m 35.189582,-11.11249 v 1.32291 H 80.96038 l 0.264584,-1.32291 m -20.637499,1.05833 0.264583,0.26458 -0.264583,-0.26458 m -26.458332,14.2875 c 0.746042,-1.60551 1.541411,-2.9203 1.1992,-4.7625 -0.261499,-1.4077 -1.523381,-3.05182 -1.330676,-4.48629 0.210622,-1.56783 3.023378,-1.46554 2.271211,-3.42263 -0.996313,-2.59233 -5.341405,0.3515 -5.73958,2.08828 -0.571755,2.49395 1.54083,4.68783 1.154286,7.14355 -0.314786,1.99987 -3.351325,2.73588 -2.489245,4.98789 0.558711,1.45952 3.166505,0.63448 4.1825,2.16749 2.025647,3.0565 1.739707,9.27049 7.361784,7.02556 1.093021,-0.43646 1.578351,-1.41757 0.942376,-2.49987 -0.745497,-1.26868 -2.231574,-0.18138 -3.132536,-1.18287 -1.963002,-2.182 -0.71932,-6.31 -4.41932,-7.05861 m 46.74305,-13.31737 -0.08819,0.17641 0.08819,-0.17641 m -18.961802,0.0882 -0.264583,0.26458 0.264583,-0.26458 m 8.466667,1.32292 -0.264584,0.26458 0.264584,-0.26458 m 9.789583,0.26458 -0.264584,0.26458 0.264584,-0.26458 m -21.960416,7.67292 c -4.381192,2.69399 -5.166609,7.01265 -3.175,11.64166 l 2.207714,-8.20208 0.967286,-3.43958 m -31.220832,24.60625 c -2.046814,-0.38021 -4.359137,-0.85788 -6.349999,-0.001 -2.58278,1.11107 -3.154725,4.48574 -1.219617,6.49228 1.767217,1.83247 4.881271,2.31341 7.305033,2.50497 0,4.50105 0.968606,8.4366 3.96875,11.90625 -1.973507,0.0407 -4.209542,0.359 -6.084395,0.99219 -0.676921,0.2286 -2.064106,0.82457 -1.363341,1.75062 1.348686,1.78225 6.207267,1.81063 8.241486,1.99989 7.666973,0.71336 15.568364,1.31817 23.283332,0.78987 3.974038,-0.27214 7.952138,-0.51337 11.906249,-1.06915 1.627929,-0.22883 3.865389,-0.33977 5.251246,-1.31109 1.045568,-0.73281 0.468011,-1.63952 -0.493849,-2.05868 -1.783499,-0.7772 -4.150966,-1.05383 -6.080313,-1.09365 1.276819,-2.07089 2.521301,-3.93487 3.062506,-6.35 0.327605,-1.46196 0.04291,-3.94207 0.912574,-5.17693 1.133942,-1.61011 5.141417,-1.12005 6.816282,-2.81609 1.975566,-2.00056 1.734625,-5.34799 -1.001981,-6.49863 -1.868394,-0.7856 -4.420313,-0.41863 -6.349798,-0.0604 -0.03799,-4.19804 -4.50952,-5.1591 -7.9375,-5.75469 -8.286105,-1.43964 -17.097365,-1.22515 -25.399998,-0.0314 -3.48038,0.5004 -8.4282,1.53564 -8.466667,5.78613 m 79.110417,-1.5875 c 1.70395,3.05698 6.61283,5.95118 7.0729,9.525 0.1855,1.44098 -0.72515,2.9486 -1.25207,4.23333 -2.46955,-1.26342 -4.63828,-1.85208 -7.40833,-1.85208 l 1.5875,-11.90625 m -45.243752,2.11666 v 0.26459 l -16.668749,1.04791 -9.260416,-1.04791 c 1.660574,-1.35955 4.567381,-1.16973 6.614583,-1.36785 5.940335,-0.57483 13.645985,-1.0353 19.314582,1.10326 m -28.045832,1.85209 c 9.576055,2.69101 19.9573,1.49385 29.633332,0.26458 0.768267,4.13838 0.924524,10.37286 -1.939053,13.75446 -4.324873,5.10723 -14.203016,4.61486 -20.021362,2.98145 -1.932554,-0.54254 -4.108357,-1.53277 -5.507254,-3.00229 -2.831037,-2.97391 -3.186963,-10.18878 -2.165663,-13.9982 m -3.439583,1.05833 v 0.26458 l -0.529166,0.26459 0.793749,0.79375 -8.202082,-1.05834 c 0.941136,-2.34123 5.983504,-0.30492 7.937499,-0.26458 m 42.068748,-0.52917 v 0.26459 h -1.322917 l 1.322917,-0.26459 m -1.5875,0.26459 v 0.26458 h -1.058333 l 1.058333,-0.26458 m -1.5875,0.26458 v 0.26458 h -1.058333 l 1.058333,-0.26458 m 5.55625,0.26458 v 0.26459 l -5.291667,0.52916 c 1.58268,-1.06316 3.466278,-1.33331 5.291667,-0.79375 m 78.052079,3.43959 c 1.64872,3.72417 1.18371,6.31489 -0.79375,9.78958 l -6.35,-0.52917 c 1.32691,-3.64614 3.21421,-8.36171 7.14375,-9.26041 m -25.4,1.85208 c -0.14204,1.62684 -1.33388,6.83892 -3.01454,7.48959 -1.2591,0.48744 -3.78939,-0.0813 -5.18754,-0.0813 l 3.175,-8.46666 z"
       id="path1" /><path
       style="display:none;fill:#ffffff;stroke-width:1.45216"
       d="m 373.27756,600.89882 c -5.10548,-4.39155 -4.247,-8.00935 3.25186,-13.70401 13.20687,-10.02932 18.84006,-21.00857 20.25663,-39.48072 l 0.81605,-10.64143 3.37426,4.10671 c 10.04091,12.2205 13.09476,35.8974 6.32642,49.04956 -5.08473,9.88059 -9.67816,12.88422 -20.78535,13.59147 -8.06379,0.51347 -9.65446,0.16246 -13.23987,-2.92158 z"
       id="path4"
       transform="scale(0.26458333)" /><path
       style="display:none;fill:#ffffff;stroke-width:0.36304"
       d="m 115.08368,420.68229 c -0.98082,-0.56944 -1.80374,-1.4885 -2.53533,-2.83153 -0.96836,-1.77767 -1.08111,-2.31553 -1.06363,-5.07428 0.0372,-5.87086 2.63331,-12.36406 6.46416,-16.16756 2.90172,-2.88099 5.09745,-3.93236 8.27037,-3.96003 2.86703,-0.025 3.9747,0.61228 5.38275,3.09687 0.8116,1.43212 0.90323,1.98552 0.86624,5.23192 -0.0923,8.1023 -4.37816,16.76764 -9.61604,19.44215 -1.00623,0.51379 -2.46963,0.86903 -3.9566,0.96046 -1.97568,0.12149 -2.59612,0.008 -3.81192,-0.698 z"
       id="path13"
       transform="scale(0.26458333)" /><path
       style="fill:none;stroke-width:0.707107"
       d="m 263.735,742.02415 c 3.13458,-1.41703 8.99334,-2.0286 12.4974,-1.30455 l 2.72123,0.56229 -3.18199,0.4983 c -1.75008,0.27406 -5.72756,0.69119 -8.83883,0.92695 -5.56537,0.42172 -5.61709,0.41067 -3.19781,-0.68299 z"
       id="path35"
       transform="scale(0.26458333)" /><path
       style="fill:none;stroke-width:0.707107"
       d="m 166.34584,802.22636 c -21.55096,-4.12058 -32.56668,-10.19365 -37.92785,-20.91 -3.99285,-7.98125 -5.02786,-13.90016 -5.02786,-28.75295 0,-10.83944 0.17842,-13.05805 1.12629,-14.00573 1.03022,-1.03001 1.99524,-0.97312 11.31371,0.66694 24.46369,4.30564 43.20062,4.37933 83.94023,0.33014 8.28462,-0.82342 15.23313,-1.32694 15.44114,-1.11893 0.75422,0.75422 1.62332,10.21313 1.63684,17.81487 0.0239,13.43189 -3.21213,24.66628 -9.28002,32.21697 -4.24516,5.28253 -13.29107,10.31061 -23.56801,13.10003 -5.90259,1.60211 -30.47236,2.03189 -37.65447,0.65866 z"
       id="path36"
       transform="scale(0.26458333)" /><path
       style="fill:none;stroke-width:0.707107"
       d="m 166.34584,802.22636 c -21.55096,-4.12058 -32.56668,-10.19365 -37.92785,-20.91 -3.99285,-7.98125 -5.02786,-13.90016 -5.02786,-28.75295 0,-10.83944 0.17842,-13.05805 1.12629,-14.00573 1.03022,-1.03001 1.99524,-0.97312 11.31371,0.66694 24.46369,4.30564 43.20062,4.37933 83.94023,0.33014 8.28462,-0.82342 15.23313,-1.32694 15.44114,-1.11893 0.75422,0.75422 1.62332,10.21313 1.63684,17.81487 0.0239,13.43189 -3.21213,24.66628 -9.28002,32.21697 -4.24516,5.28253 -13.29107,10.31061 -23.56801,13.10003 -5.90259,1.60211 -30.47236,2.03189 -37.65447,0.65866 z"
       id="path37"
       transform="scale(0.26458333)" /><path
       style="fill:#ff0000;stroke-width:0.707107"
       d=""
       id="path41"
       transform="scale(0.26458333)" /><path
       style="fill:none"
       d="m 161,800.99172 c -25.14193,-5.77298 -34.82615,-15.60915 -37.25762,-37.84218 -0.59451,-5.43613 -0.73141,-13.03352 -0.31352,-17.39954 0.87331,-9.12425 -0.65131,-8.63317 17.29941,-5.57204 16.6119,2.83282 46.96806,2.8453 74.77173,0.0307 10.45,-1.05785 19.31111,-1.65007 19.69135,-1.31603 1.42677,1.2534 2.04319,20.65333 0.89308,28.10733 -2.72259,17.64545 -10.52775,26.90502 -28.03633,33.2606 -8.36023,3.03474 -35.1992,3.45182 -47.0481,0.73112 z"
       id="path44"
       transform="scale(0.26458333)" /><path
       style="fill:none"
       d="m 161,800.99172 c -25.14193,-5.77298 -34.82615,-15.60915 -37.25762,-37.84218 -0.59451,-5.43613 -0.73141,-13.03352 -0.31352,-17.39954 0.87331,-9.12425 -0.65131,-8.63317 17.29941,-5.57204 16.6119,2.83282 46.96806,2.8453 74.77173,0.0307 10.45,-1.05785 19.31111,-1.65007 19.69135,-1.31603 1.42677,1.2534 2.04319,20.65333 0.89308,28.10733 -2.72259,17.64545 -10.52775,26.90502 -28.03633,33.2606 -8.36023,3.03474 -35.1992,3.45182 -47.0481,0.73112 z"
       id="path45"
       transform="scale(0.26458333)" /><path
       style="fill:none"
       d="m 161,800.99172 c -25.14193,-5.77298 -34.82615,-15.60915 -37.25762,-37.84218 -0.59451,-5.43613 -0.73141,-13.03352 -0.31352,-17.39954 0.87331,-9.12425 -0.65131,-8.63317 17.29941,-5.57204 16.6119,2.83282 46.96806,2.8453 74.77173,0.0307 10.45,-1.05785 19.31111,-1.65007 19.69135,-1.31603 1.42677,1.2534 2.04319,20.65333 0.89308,28.10733 -2.72259,17.64545 -10.52775,26.90502 -28.03633,33.2606 -8.36023,3.03474 -35.1992,3.45182 -47.0481,0.73112 z"
       id="path46"
       transform="scale(0.26458333)" /><path
       style="display:none;fill:#ffffff;stroke-width:0.353553"
       d="m 522.19836,778.51258 c -9.85178,-6.62334 -18.93143,-10.05139 -27.77369,-10.48606 l -4.26239,-0.20953 0.10388,-0.92178 c 0.0571,-0.50699 0.35319,-3.22872 0.65789,-6.04831 0.30471,-2.81959 1.34888,-10.45634 2.32038,-16.97057 4.01433,-26.91742 4.40326,-37.45709 1.88718,-51.14117 -1.37049,-7.45361 -4.40872,-16.80781 -5.52924,-17.0236 -0.49185,-0.0947 -0.5808,1.07379 -0.76702,10.07557 -0.61483,29.72126 -2.35068,46.10762 -6.44388,60.83003 l -0.58201,2.09339 -3.22846,-0.50382 c -1.77566,-0.27711 -5.61495,-1.11034 -8.53177,-1.85164 -27.04209,-6.87261 -52.39414,-24.70114 -69.79867,-49.08506 -7.03889,-9.86157 -13.06963,-22.1046 -16.4015,-33.29676 -1.94592,-6.53658 -2.04705,-5.77861 0.91014,-6.82105 19.40879,-6.84177 35.59587,-7.57799 51.34891,-2.33542 4.91301,1.63503 6.59261,2.5112 14.04988,7.3291 8.94514,5.77917 12.15276,7.13464 16.86182,7.12544 3.22607,-0.006 5.61023,-0.53904 12.57536,-2.80996 5.88591,-1.91906 7.97313,-2.35131 12.9047,-2.67251 6.06565,-0.39506 9.46178,-1.1209 12.50723,-2.67309 5.30257,-2.7026 9.91122,-6.14527 15.55658,-11.6208 6.85371,-6.64753 12.61326,-13.77463 20.51401,-25.38486 5.04809,-7.41823 5.0109,-7.4022 7.38095,-3.18198 2.67834,4.7692 2.32982,4.54816 4.65073,2.94969 3.84359,-2.64719 6.80562,-7.26795 10.21972,-15.94277 5.80099,-14.73965 8.16315,-27.98971 8.67346,-48.6521 l 0.22361,-9.05412 3.28191,1.41172 c 1.80504,0.77645 3.37845,1.31517 3.49647,1.19716 0.29969,-0.29969 1.01834,-4.60776 1.57243,-9.42616 0.6743,-5.86378 0.57106,-20.08966 -0.19372,-26.69328 -0.89273,-7.70851 -2.13359,-14.67143 -3.93482,-22.07972 -1.98137,-8.14919 -2.30417,-9.19073 -6.14159,-19.81636 -3.02949,-8.38848 -5.29975,-16.05652 -4.87853,-16.47774 0.36234,-0.36234 6.31205,0.9672 10.68694,2.38813 2.33345,0.75789 6.31093,2.38051 8.83884,3.60582 9.12807,4.4245 16.12265,9.45892 23.89119,17.1959 6.63877,6.6118 10.78365,11.97311 14.92335,19.30298 1.70255,3.0146 4.97867,10.38939 4.72707,10.641 -0.0814,0.0814 -8.99678,-1.18087 -19.8119,-2.8051 -10.81512,-1.62423 -19.66385,-2.85635 -19.66385,-2.73805 0,0.11829 3.38225,3.54749 7.51611,7.62043 7.98088,7.86327 10.26218,10.6036 13.49368,16.20876 12.64306,21.9299 20.47812,50.82776 21.36998,78.81834 0.54004,16.94864 -0.87221,31.58025 -4.40288,45.61633 -7.65916,30.44873 -23.59134,52.87958 -47.22076,66.48191 l -1.64247,0.94549 -0.16904,-13.88894 c -0.20385,-16.74825 -0.83171,-21.71463 -3.81195,-30.15239 -1.95024,-5.52159 -5.79669,-12.47776 -6.34112,-11.46773 -0.15048,0.27917 -5.00861,15.78109 -10.79585,34.4487 l -10.52224,33.94113 -11.26419,22.53903 c -6.1953,12.39646 -11.30371,22.53834 -11.35203,22.53751 -0.0483,-8.3e-4 -0.80379,-0.48284 -1.67883,-1.07113 z"
       id="path56"
       transform="scale(0.26458333)" /><path
       style="display:none;fill:#ffffff;stroke-width:0.353553"
       d="m 419.4911,771.07488 c -5.84867,-2.85178 -13.42976,-4.76899 -20.44484,-5.17037 l -3.84787,-0.22015 0.16722,-1.09291 c 0.092,-0.6011 1.4187,-10.53585 2.94829,-22.07724 2.04386,-15.42174 2.8763,-20.82035 3.1403,-20.36574 1.15685,1.99209 5.37749,6.82225 11.07614,12.67569 3.57736,3.67453 7.43865,7.85675 8.58064,9.29383 6.01349,7.56734 7.63007,13.29638 5.51854,19.55733 -1.11262,3.29906 -3.65093,8.84914 -4.02864,8.80876 -0.15475,-0.0165 -1.55415,-0.65069 -3.10978,-1.4092 z"
       id="path57"
       transform="scale(0.26458333)" /><path
       style="display:none;fill:#ffffff;stroke-width:0.353553"
       d="m 261.45273,742.74412 c 4.15361,-2.19517 9.08932,-3.07038 13.65796,-2.42186 2.87754,0.40847 4.20647,0.83352 3.81861,1.22138 -0.1709,0.17089 -17.23442,1.9953 -18.36045,1.96307 -0.29168,-0.008 0.10607,-0.35151 0.88388,-0.76259 z"
       id="path58"
       transform="scale(0.26458333)" /><path
       style="display:none;fill:#ffffff;stroke-width:0.353553"
       d="m 176.24637,803.97792 c -12.46024,-0.98629 -24.39341,-3.73837 -32.27497,-7.4434 -12.60429,-5.92512 -17.68841,-13.17479 -20.66244,-29.46352 -0.67374,-3.69009 -0.78284,-5.54571 -0.79204,-13.47195 -0.0102,-8.79822 0.16206,-10.96239 1.25506,-15.76702 l 0.36964,-1.62488 4.13206,1.0143 c 15.09664,3.70579 29.74961,5.11065 49.91723,4.78583 15.70526,-0.25295 29.30821,-1.33029 50.33882,-3.98679 3.86569,-0.4883 7.10628,-0.81007 7.20131,-0.71504 0.095,0.095 0.49336,2.20897 0.88518,4.69766 0.56497,3.58851 0.72093,6.39053 0.75364,13.54049 0.0448,9.78238 -0.37912,13.71835 -2.12684,19.74936 -4.11498,14.19993 -13.55241,22.47573 -30.50582,26.75096 -6.81612,1.71885 -19.94762,2.61024 -28.49083,1.934 z"
       id="path59"
       transform="scale(0.26458333)" /><path
       style="display:none;fill:#ffffff;stroke-width:0.353553"
       d="m 149.12346,731.70766 c -8.69507,-1.00704 -15.91759,-1.93937 -16.05006,-2.07184 -0.42719,-0.42719 4.90697,-2.67596 7.64085,-3.22122 1.45841,-0.29087 5.03814,-0.70483 7.95495,-0.9199 2.91682,-0.21506 9.04213,-0.69784 13.61181,-1.07283 22.42434,-1.84017 37.14014,-1.72937 50.55813,0.38065 7.27882,1.14461 16.97056,3.75642 16.97056,4.57336 0,0.1639 -1.15346,0.39557 -2.56326,0.51484 -5.77094,0.48823 -58.98058,3.72939 -60.58224,3.69025 -0.95235,-0.0233 -8.84568,-0.86626 -17.54074,-1.87331 z"
       id="path60"
       transform="scale(0.26458333)" /><path
       style="display:none;fill:#ffffff;stroke-width:0.353553"
       d="m 95.73111,742.66816 c -7.72597,-1.01359 -14.131934,-1.92761 -14.235475,-2.03115 -0.382207,-0.38221 1.285945,-2.02514 2.800821,-2.75848 3.24428,-1.57053 7.144639,-1.38311 18.495834,0.88876 3.35249,0.67097 6.49469,1.21996 6.98268,1.21996 0.55296,0 0.88724,0.19981 0.88724,0.53033 0,0.29168 -0.12869,0.53033 -0.28598,0.53033 -0.15729,0 -0.59481,0.22752 -0.97227,0.50561 -0.66407,0.48923 -0.64683,0.54648 0.53211,1.76776 1.0127,1.04907 1.10224,1.25605 0.53033,1.22597 -0.37844,-0.0199 -7.00932,-0.8655 -14.73529,-1.87909 z"
       id="path61"
       transform="scale(0.26458333)" /><path
       style="display:none;fill:#ffffff;stroke-width:0.353553"
       d="m 232.28458,516.87467 c 0,-5.79257 1.93354,-14.1935 4.14533,-18.01084 1.37662,-2.37591 3.05635,-4.31621 4.85443,-5.6075 l 1.60684,-1.15395 -0.0123,5.76721 c -0.021,9.82702 -1.13551,13.54882 -5.2737,17.61125 -1.28752,1.26396 -3.01136,2.66625 -3.83075,3.11622 l -1.48981,0.81812 z"
       id="path62"
       transform="scale(0.26458333)" /><path
       style="display:none;fill:#ffffff;stroke-width:0.353553"
       d="m 305.03176,476.24559 c -1.58153,-1.24403 -1.93092,-4.64511 -0.71005,-6.91178 1.76807,-3.28259 6.18542,-3.4642 7.67946,-0.31573 2.06418,4.34993 -3.41027,10.02712 -6.96941,7.22751 z"
       id="path63"
       transform="scale(0.26458333)" /><path
       style="display:none;fill:#ffffff;stroke-width:0.353553"
       d="m 311.02937,461.16276 c -8.48449,-4.24609 -8.74663,-4.4086 -8.34456,-5.17328 1.73774,-3.30504 4.21955,-5.60854 6.78774,-6.30008 1.97162,-0.53091 4.08646,0.12277 6.08299,1.88019 3.04561,2.68085 4.50909,6.44521 4.33676,11.15502 l -0.10326,2.82196 z"
       id="path64"
       transform="scale(0.26458333)" /><path
       style="display:none;fill:#ffffff;stroke-width:0.353553"
       d="m 280.19106,602.46895 c -3.70382,-0.97906 -6.08082,-1.92865 -13.06541,-5.21956 -10.41881,-4.90899 -11.11506,-5.14865 -15.39564,-5.29938 -3.04606,-0.10725 -4.37855,0.0275 -7.42462,0.7508 -2.04177,0.48483 -6.09879,1.39717 -9.01561,2.02742 -2.91681,0.63025 -5.36575,1.19086 -5.44207,1.2458 -0.0763,0.055 0.0657,0.34624 0.31555,0.64732 0.24987,0.30108 0.34787,0.65386 0.21778,0.78395 -0.1301,0.1301 -1.39749,-0.94767 -2.81644,-2.39503 -7.627,-7.77976 -9.17691,-20.82154 -4.46759,-37.59292 4.16862,-14.84579 12.12204,-26.87681 20.58522,-31.13896 7.3541,-3.70362 15.89545,-2.17475 24.93029,4.46241 5.1295,3.76822 13.25168,12.63405 19.05764,20.80249 10.49382,14.76385 15.96683,25.32036 17.6053,33.95765 0.64833,3.41774 0.63169,3.16546 0.20886,3.16546 -0.18665,0 -0.53003,-0.6364 -0.76307,-1.41422 -0.39225,-1.3092 -0.518,-1.41411 -1.69357,-1.41288 l -1.26986,10e-4 -1.03837,3.62259 c -1.28251,4.47435 -2.57782,7.00205 -4.72833,9.22698 -3.17991,3.28995 -5.9858,4.48302 -10.47135,4.45242 -1.58523,-0.0108 -3.95398,-0.31028 -5.32871,-0.67367 z m 1.47051,-10.29427 c 4.97182,-2.40682 5.76277,-9.71648 1.92539,-17.79364 -3.60078,-7.57913 -10.14736,-14.26635 -17.53555,-17.91228 -1.94318,-0.95892 -3.71538,-1.74349 -3.93821,-1.74349 -0.48169,0 -1.43117,3.59028 -1.70876,6.46131 -0.10859,1.12304 -0.0254,3.89086 0.18494,6.15071 1.16519,12.52093 6.57877,22.93466 13.14239,25.28108 2.32578,0.83144 5.68386,0.64355 7.9298,-0.44369 z m -42.60658,-5.13181 c 1.56497,-0.80062 3.41449,-3.29468 4.20514,-5.67057 1.47128,-4.42122 1.46961,-13.23024 -0.004,-19.43363 -1.65539,-6.97007 -4.375,-9.01204 -8.6993,-6.53172 -5.09837,2.92431 -8.0278,13.28843 -6.50278,23.0064 0.69177,4.4082 3.32403,8.32097 6.17476,9.17859 1.257,0.37816 3.51579,0.12116 4.82587,-0.54907 z"
       id="path65"
       transform="scale(0.26458333)" /><path
       style="display:none;fill:#ffffff;stroke-width:0.353553"
       d="m 378.60467,604.41923 c -4.90077,-1.02568 -8.56009,-3.75185 -9.48887,-7.06915 -0.96939,-3.46231 1.45238,-6.54323 10.59289,-13.476 4.66396,-3.53746 8.22919,-8.0835 11.34185,-14.46205 3.63087,-7.44046 4.92926,-13.35294 4.92926,-22.44631 0,-5.5093 0.41796,-9.73405 1.02563,-10.36713 0.42771,-0.4456 4.5554,3.94401 6.61143,7.03095 7.93301,11.9107 10.4332,29.42203 6.1273,42.91554 -2.22443,6.97073 -7.30741,13.54763 -12.20508,15.79224 -4.80474,2.20201 -13.69165,3.17917 -18.93441,2.08191 z"
       id="path66"
       transform="scale(0.26458333)" /><path
       style="display:none;fill:#ffffff;stroke-width:0.353553"
       d="m 415.4358,489.98519 c -1.67126,-0.66699 -3.20863,-2.13676 -4.12351,-3.94218 -2.52654,-4.98589 0.24976,-9.62531 5.76187,-9.62854 1.85642,-10e-4 2.40511,0.15747 3.70394,1.07032 4.73736,3.32954 5.09892,9.86261 0.66956,12.09827 -1.68703,0.85151 -4.42671,1.03476 -6.01186,0.40213 z"
       id="path67"
       transform="scale(0.26458333)" /><path
       style="display:none;fill:#ffffff;stroke-width:0.353553"
       d="m 419.6043,515.79719 c -1.29892,-0.16924 -3.25737,-0.64283 -4.35211,-1.05242 l -1.99044,-0.74472 4.26298,-2.88353 c 7.46405,-5.04876 10.46085,-8.05072 12.76103,-12.78302 2.74022,-5.6376 3.38831,-12.44738 1.6576,-17.41736 -2.34166,-6.72443 -7.6382,-11.25551 -15.44215,-13.21042 -2.54721,-0.63809 -3.67265,-0.72197 -7.6014,-0.56657 -2.7058,0.10702 -5.33522,0.41191 -6.36278,0.73778 -0.9632,0.30546 -1.81779,0.48885 -1.89911,0.40754 -0.0813,-0.0813 0.2532,-0.8312 0.74336,-1.66641 4.3309,-7.37974 13.64277,-11.43574 24.06748,-10.48316 4.05878,0.37089 6.74208,1.11287 10.65935,2.94753 9.18829,4.30334 14.77929,12.21357 16.05636,22.71677 1.25895,10.35424 -3.23973,21.77589 -10.9162,27.71501 -6.13965,4.75011 -14.58733,7.20237 -21.64397,6.28298 z"
       id="path68"
       transform="scale(0.26458333)" /><path
       style="display:none;fill:#ffffff;stroke-width:0.353553"
       d="m 603.93896,453.05788 c -4.79042,-1.2893 -7.57861,-2.82691 -18.35357,-10.12151 -3.06958,-2.07809 -6.6535,-4.32237 -7.96426,-4.98728 l -2.38321,-1.20893 1.22002,-1.25621 c 1.57721,-1.624 3.25547,-2.16185 6.04659,-1.9378 2.81443,0.22591 7.01048,2.20055 11.15107,5.24763 2.98977,2.20019 11.5679,10.52845 13.71203,13.31262 l 1.15717,1.5026 -1.35553,-0.0233 c -0.74554,-0.0128 -2.19918,-0.25033 -3.23031,-0.52785 z"
       id="path69"
       transform="scale(0.26458333)" /><path
       style="display:none;fill:#ffffff;stroke-width:0.353553"
       d="m 327.18964,370.1704 c 0.10494,-2.23622 0.28219,-6.13415 0.39388,-8.66206 0.46845,-10.60219 2.26573,-20.26192 5.45991,-29.34493 2.99525,-8.51734 7.9195,-17.23027 12.35828,-21.86668 4.72496,-4.93532 8.57489,-5.89927 11.90023,-2.97959 0.68988,0.60573 2.38265,2.70511 3.7617,4.66529 1.37905,1.96019 4.44157,6.03001 6.8056,9.04405 6.28575,8.01409 8.10411,10.50212 10.08873,13.80422 l 1.78005,2.96172 -3.10443,1.46029 c -10.63346,5.00186 -17.60753,11.18613 -21.63607,19.18581 -0.61861,1.22841 -1.31154,2.17121 -1.53985,2.09511 -0.50309,-0.1677 -1.42226,-4.54015 -2.21061,-10.51577 -0.65869,-4.9929 -0.84195,-13.06842 -0.40717,-17.94284 0.2763,-3.09753 0.25559,-3.27037 -0.39174,-3.27037 -0.543,0 -1.26836,1.28968 -3.52963,6.27558 -4.38972,9.6789 -6.22226,15.61677 -6.98327,22.62741 -0.13193,1.21534 -0.36405,2.20971 -0.51582,2.20971 -0.15177,0 -0.47613,-0.48329 -0.7208,-1.07398 -0.24467,-0.5907 -0.57389,-1.02822 -0.73158,-0.97228 -0.1577,0.0559 -2.54188,3.6019 -5.29819,7.87989 -2.7563,4.278 -5.15964,7.93728 -5.34074,8.13173 -0.20397,0.219 -0.25667,-1.19384 -0.13848,-3.71231 z"
       id="path70"
       transform="scale(0.26458333)" /><path
       style="display:none;fill:#ffffff;stroke-width:0.707107"
       d="m 364.00367,627.91507 c -3.63769,-0.51367 -25.76308,-4.7238 -31.97057,-6.08352 -1.61998,-0.35485 -1.54184,-0.47898 1.32763,-2.10886 1.67691,-0.9525 8.10043,-4.30899 14.2745,-7.45887 l 11.22558,-5.72704 2.91591,2.63434 c 6.10634,5.51672 15.9791,8.62796 25.01069,7.88172 9.10006,-0.75188 16.47419,-4.043 23.24008,-10.37215 10.627,-9.94104 15.16302,-26.50952 12.16546,-44.43621 -1.40083,-8.37763 -2.76986,-12.66379 -6.2412,-19.54003 -4.80337,-9.51477 -11.45583,-15.9499 -17.55362,-16.98011 -2.19209,-0.37036 -3.54697,-0.11008 -6.15041,1.1815 -5.07366,2.51706 -5.93474,4.87444 -6.61881,18.12033 -0.63024,12.20374 -1.85234,18.10149 -4.71772,22.76724 -1.71045,2.78515 -5.77344,6.3773 -7.2132,6.3773 -0.27826,0 -0.91108,-1.90919 -1.40627,-4.24264 -0.49519,-2.33346 -1.05855,-4.24264 -1.25192,-4.24264 -0.19336,0 -2.61591,2.14824 -5.38345,4.77386 -7.36192,6.98442 -17.01705,13.0421 -27.48379,17.24349 -4.68339,1.87993 -17.41522,6.26692 -18.18774,6.26692 -0.31951,0 -0.94618,-2.09739 -1.39259,-4.66086 -2.07671,-11.92538 -8.79421,-26.90876 -17.54228,-39.12807 -5.30995,-7.41693 -16.94858,-19.91873 -23.08812,-24.80043 -3.3516,-2.66494 -3.76114,-3.21966 -2.5204,-3.41388 2.20684,-0.34543 11.00266,2.50117 16.312,5.27907 4.30455,2.25219 9.72202,6.33199 19.07557,14.3655 3.22379,2.76882 3.60446,2.93964 3.15159,1.41421 -1.13493,-3.82291 -6.13938,-11.16302 -10.38395,-15.23034 -5.24328,-5.02431 -9.09724,-7.5893 -15.44796,-10.28132 l -4.59353,-1.94715 6.03173,-5.87642 c 3.31745,-3.23204 10.29622,-9.8539 15.50838,-14.71526 12.43838,-11.60123 17.10248,-17.97599 20.60896,-28.16774 4.06124,-11.8042 1.25893,-22.71763 -6.76981,-26.36458 -3.11575,-1.41529 -8.60072,-1.71267 -12.25559,-0.66447 l -2.3175,0.66466 0.47323,-2.6092 c 0.63994,-3.52833 2.56322,-7.16744 4.99024,-9.44218 2.01212,-1.88589 7.02472,-3.67794 8.82787,-3.15605 0.52778,0.15275 3.25729,1.02037 6.06558,1.92804 l 5.10597,1.65029 1.9651,-1.46307 c 2.49199,-1.85536 3.35738,-4.2789 2.72726,-7.63773 -0.67325,-3.58876 -5.54054,-8.38794 -10.17711,-10.03471 l -3.55244,-1.26171 2.94816,-4.25362 c 6.9585,-10.03974 21.37873,-22.43946 36.40444,-31.30357 9.28152,-5.47544 14.42983,-7.45052 18.67402,-7.16401 l 3.44652,0.23266 1.62778,-4.00046 c 2.88105,-7.08055 5.43709,-10.7092 12.3738,-17.5663 11.99078,-11.85317 28.90673,-19.74129 46.29364,-21.5873 l 4.85628,-0.5156 -1.80238,3.0965 c -5.56115,9.55407 -16.02222,28.45418 -15.84646,28.62995 0.11298,0.11298 2.86819,-0.86822 6.12267,-2.18044 11.41709,-4.60343 27.43475,-6.06843 43.59769,-3.98752 9.4139,1.212 9.6252,1.3689 6.96263,5.17004 -2.65675,3.79283 -7.19084,6.30704 -14.28852,7.9232 -10.28318,2.3415 -13.59854,3.41521 -13.59854,4.404 0,0.70768 1.10443,0.96748 4.11277,0.96748 5.03365,0 11.80312,1.19817 14.42255,2.55272 3.27719,1.69471 4.60198,5.69751 5.88342,17.7766 0.25787,2.43068 0.72118,4.41942 1.02959,4.41942 0.30839,0 2.22484,-4.53432 4.25877,-10.07627 6.96237,-18.97077 10.28076,-25.22722 17.63738,-33.25333 11.09587,-12.10566 31.0981,-22.43733 50.94336,-26.31357 9.19402,-1.79581 25.0511,-2.16018 33.50477,-0.76989 3.84354,0.63211 7.21543,1.28969 7.49308,1.46128 0.27765,0.1716 -0.0815,2.94848 -0.79814,6.17084 -0.71663,3.22236 -2.73615,15.72298 -4.48783,27.77915 -3.75954,25.87563 -5.13261,32.68041 -8.7177,43.20395 -7.41414,21.76327 -20.94384,34.61859 -41.91302,39.82387 -6.24831,1.55105 -16.26062,2.07278 -21.32038,1.11099 -1.45841,-0.27722 -2.65165,-0.25901 -2.65165,0.0405 0,0.29949 4.54895,5.18742 10.10878,10.86208 5.55983,5.67465 11.39097,12.06764 12.95809,14.20664 7.14651,9.75444 12.42383,21.03322 15.44011,32.99887 1.69096,6.7081 3.69732,20.49194 3.07358,21.11569 -0.16723,0.16722 -6.3124,-4.62159 -13.65593,-10.6418 -7.34353,-6.02022 -13.60385,-10.94585 -13.91182,-10.94585 -0.64094,0 0.89157,3.50472 7.42074,16.97057 5.04922,10.41358 7.00161,16.57051 8.57213,27.03256 1.06558,7.0984 2.31073,29.53598 1.63906,29.53598 -0.2111,0 -1.24493,-1.67054 -2.2974,-3.71231 -3.10385,-6.02144 -9.22922,-13.53414 -17.1713,-21.06041 -4.09002,-3.8759 -7.74444,-7.04709 -8.12093,-7.04709 -0.37648,0 -0.47529,0.71595 -0.21957,1.59099 0.25573,0.87505 0.65286,5.25027 0.88251,9.72272 0.48496,9.44437 -0.46041,17.83123 -3.01134,26.71506 -1.72491,6.00715 -7.02771,17.83267 -7.99653,17.83267 -0.26619,0 -2.21969,-4.61387 -4.34111,-10.25305 -3.29591,-8.76119 -4.07521,-10.25305 -5.35587,-10.25305 -1.11529,0 -1.79682,0.7805 -2.66377,3.0506 -3.23371,8.46733 -15.04465,22.23773 -25.25329,29.44284 -4.87325,3.43947 -14.01131,8.51876 -15.32595,8.51876 -0.31639,0 -0.57977,-3.42063 -0.5853,-7.6014 -0.01,-7.28633 -1.74497,-16.44023 -3.11661,-16.44023 -0.28598,0 -1.33149,1.2263 -2.32336,2.7251 -9.86968,14.9141 -30.07103,26.9932 -53.45705,31.96385 -7.71849,1.64055 -27.81481,2.42623 -35.23992,1.37774 z m 67.8758,-106.4021 c 12.65767,-2.68221 22.22813,-11.95853 25.61533,-24.82805 1.42997,-5.43311 1.43584,-17.02583 0.0114,-22.56982 -2.8395,-11.05168 -10.51626,-21.39694 -18.74647,-25.26291 -13.39117,-6.29022 -30.6128,-3.292 -41.02994,7.14316 -4.66741,4.67548 -8.0382,11.09089 -9.52048,18.11975 -2.92933,13.89066 1.26009,28.97535 10.65714,38.37278 8.67369,8.67405 20.02508,11.77729 33.01299,9.02509 z m 25.96135,-87.75377 c 0.0159,-7.35828 -1.53342,-11.14934 -6.65111,-16.27452 -4.83593,-4.84302 -9.45276,-7.00116 -17.6173,-8.23523 -9.8863,-1.49432 -20.73363,2.16694 -25.94209,8.75614 -2.69614,3.41086 -4.93301,9.03239 -4.93301,12.39723 0,2.09442 0.64604,2.08681 10.89158,-0.12834 14.58563,-3.15351 19.97167,-2.28692 34.71681,5.58577 5.82694,3.11111 8.64804,4.27497 9.00479,3.71498 0.28572,-0.44851 0.52437,-3.06573 0.53033,-5.81603 z m 85.13886,-2.98931 c 14.24958,-5.19516 27.58143,-20.66547 34.56415,-40.10831 3.96381,-11.03695 5.00928,-17.91315 5.16844,-33.99342 0.12328,-12.45625 0.34591,-15.29987 1.34979,-17.24117 1.68312,-3.25478 0.69903,-3.69467 -7.41648,-3.31521 -11.41692,0.53382 -26.55334,6.64202 -38.19229,15.41222 -6.35129,4.78584 -14.63934,13.29994 -19.28605,19.81205 -4.32294,6.05836 -9.32916,16.65031 -10.8277,22.9088 -2.33454,9.74994 -1.14778,22.53293 2.74977,29.61869 1.65869,3.0155 6.84753,6.98408 10.65983,8.15293 3.91118,1.19917 16.55913,0.45654 21.23054,-1.24658 z"
       id="path71"
       transform="scale(0.26458333)" /><path
       style="display:none;fill:#ffffff;stroke-width:0.707107"
       d="m 114.69785,420.01037 c -2.81074,-2.21092 -3.64953,-5.65655 -2.63382,-10.8193 1.64554,-8.36414 6.10889,-14.34827 12.02357,-16.12035 7.60199,-2.27761 10.62702,5.87952 6.3835,17.21339 -3.34028,8.92142 -10.88332,13.57269 -15.77325,9.72626 z"
       id="path72"
       transform="scale(0.26458333)" /><path
       style="display:none;fill:#ffffff;stroke-width:0.707107"
       d="m 74.599765,495.7295 c 0,-13.27455 0.0402,-13.37776 4.243668,-10.89471 4.862302,2.87223 6.915431,11.95219 3.876275,17.14283 -1.516833,2.59064 -4.00182,4.63104 -6.528952,5.36087 l -1.590991,0.45948 z"
       id="path73"
       transform="scale(0.26458333)" /><path
       style="display:none;fill:#ffffff;stroke-width:0.707107"
       d="m 111.10583,498.68706 c 0.25881,-1.0695 0.79299,-2.74004 1.18707,-3.71231 l 0.7165,-1.76777 0.51051,2.12132 c 1.03013,4.28048 0.81732,5.3033 -1.1034,5.3033 -1.58584,0 -1.72962,-0.21331 -1.31068,-1.94454 z"
       id="path74"
       transform="scale(0.26458333)" /><path
       style="display:none;fill:#ffffff;stroke-width:0.707107"
       d="m 170.76629,499.4762 c 0,-0.24656 0.36856,-1.67845 0.81903,-3.18198 0.79635,-2.65798 2.00939,-3.72132 2.00939,-1.76141 0,0.53474 0.19888,1.96664 0.44195,3.18198 0.40518,2.02591 0.28755,2.2097 -1.41422,2.2097 -1.02088,0 -1.85615,-0.20173 -1.85615,-0.44829 z"
       id="path75"
       transform="scale(0.26458333)" /><path
       style="display:none;fill:#ffffff;stroke-width:0.707107"
       d="m 557.74348,789.51979 c -5.14589,-0.45871 -9.52058,-0.99844 -9.72154,-1.1994 -0.5169,-0.5169 2.73106,-8.32913 6.53279,-15.71318 3.96422,-7.69964 9.49373,-13.85681 14.75669,-16.43174 2.2194,-1.08585 4.12248,-1.62645 4.45099,-1.26438 1.18221,1.30298 2.97244,7.86318 3.36456,12.32917 0.51491,5.8647 -0.5571,10.89585 -3.79807,17.82504 -2.26919,4.85152 -2.77343,5.46909 -4.39622,5.38429 -1.00817,-0.0527 -6.04331,-0.4711 -11.1892,-0.9298 z"
       id="path76"
       transform="scale(0.26458333)" /><path
       style="display:none;fill:#ffffff;stroke-width:0.707107"
       d="m 453.73608,789.14129 c -2.84693,-0.31951 -5.34329,-0.74799 -5.54747,-0.95217 -0.35944,-0.35944 10.17259,-29.33073 11.01358,-30.29594 0.22947,-0.26336 4.46639,0.36614 9.41537,1.39889 l 8.99815,1.87774 -0.43311,2.84375 c -1.39712,9.1735 -6.28981,21.46436 -9.49789,23.85953 -2.11672,1.58036 -7.11663,2.03495 -13.94863,1.2682 z"
       id="path77"
       transform="scale(0.26458333)" /></g></svg>
